<svg fill="none" height="600" viewBox="0 0 600 600" width="600" xmlns="http://www.w3.org/2000/svg"><path d="m213.918 560.499c23.248 9.357 48.469 14.909 74.952 15.834 35.84 1.252 69.922-6.158 100.391-20.234-36.537-14.355-69.627-35.348-97.869-61.448-18.306 29.31-45.382 52.462-77.474 65.848z" fill="#ff9100"/><path d="m291.389 494.66c-64.466-59.622-103.574-145.917-100.269-240.568.108-3.073.27-6.145.46-9.216-11.546-2.986-23.6-4.808-36.004-5.241-17.755-.62-34.95 1.582-51.183 6.153-17.2092 30.145-27.5941 64.733-28.8879 101.781-3.3388 95.611 54.5219 179.154 138.4089 212.939 32.093-13.387 59.168-36.51 77.475-65.848z" fill="#ffc400"/><path d="m291.39 494.657c14.988-23.986 24.075-52.106 25.133-82.403 2.783-79.695-50.792-148.251-124.942-167.381-.19 3.071-.352 6.143-.46 9.216-3.305 94.651 35.803 180.946 100.269 240.568z" fill="#ff9100"/><path d="m308.231 20.8584c-42.231 33.8324-75.579 78.4436-95.756 129.8346-11.551 29.436-18.81 61.055-20.929 94.2 74.15 19.13 127.726 87.686 124.943 167.38-1.058 30.297-10.172 58.39-25.134 82.404 28.24 26.127 61.331 47.093 97.868 61.447 73.337-33.9 125.37-106.846 128.383-193.127 1.952-55.901-19.526-105.724-49.875-147.778-32.051-44.477-159.5-194.3606-159.5-194.3606z" fill="#dd2c00"/></svg>